<?xml version="1.0" standalone="no"?>
<!DOCTYPE svg PUBLIC "-//W3C//DTD SVG 20010904//EN"
 "http://www.w3.org/TR/2001/REC-SVG-20010904/DTD/svg10.dtd">
<svg version="1.0" xmlns="http://www.w3.org/2000/svg"
 width="174.000000pt" height="174.000000pt" viewBox="0 0 174.000000 174.000000"
 preserveAspectRatio="xMidYMid meet">

<g transform="translate(0.000000,174.000000) scale(0.100000,-0.100000)"
fill="#000000" stroke="none">
<path d="M640 1687 c-212 -81 -349 -236 -396 -444 -20 -90 -15 -276 10 -368
30 -112 93 -224 165 -295 61 -60 158 -120 196 -120 7 0 21 -8 30 -17 18 -18
17 -80 -5 -303 -5 -52 -8 -95 -7 -96 1 -1 21 -4 45 -7 42 -5 42 -5 42 26 l1
32 26 -29 c21 -25 34 -31 85 -34 33 -3 64 0 70 6 16 16 0 49 -32 62 -37 15
-90 74 -89 98 0 10 3 12 6 5 9 -24 23 -13 17 12 -4 16 -2 25 6 25 7 0 10 6 7
14 -3 7 -1 18 5 24 17 17 1 42 -24 39 -21 -2 -23 2 -26 59 l-3 61 78 6 c43 4
87 9 99 13 19 5 22 1 27 -49 5 -56 -16 -338 -28 -357 -4 -6 7 -10 29 -10 19 0
41 -3 50 -6 13 -5 16 1 16 27 l0 33 29 -32 c28 -30 34 -32 95 -32 59 0 66 2
66 20 0 10 -12 27 -26 37 -53 36 -109 94 -96 100 6 2 12 16 12 29 0 13 5 24
11 24 6 0 9 6 6 14 -3 7 -1 18 5 24 19 19 1 43 -27 36 l-25 -6 0 100 0 101 50
25 c105 53 197 141 244 233 26 51 76 243 76 291 0 139 -114 382 -237 507 -115
116 -214 155 -393 155 -94 -1 -114 -4 -190 -33z m333 -2 c94 -24 157 -63 237
-144 86 -87 149 -197 201 -352 36 -109 35 -148 -6 -288 -34 -116 -59 -163
-120 -229 -95 -103 -204 -155 -295 -142 -33 5 -82 4 -123 -3 -59 -10 -72 -9
-100 6 -18 10 -44 37 -59 61 l-26 43 -100 10 c-64 6 -110 16 -127 27 -57 37
-79 143 -54 254 15 63 7 92 -37 139 -64 69 -84 130 -61 184 8 19 42 68 77 109
70 83 80 104 80 160 0 35 5 42 43 68 59 41 94 58 178 86 88 30 203 34 292 11z
m-543 -189 c0 -28 -11 -48 -52 -96 -29 -34 -66 -81 -81 -103 -36 -53 -29 -21
18 78 27 59 96 155 111 155 2 0 4 -16 4 -34z m-135 -382 c10 -16 34 -46 53
-66 35 -37 35 -37 26 -100 -16 -117 -11 -188 16 -236 36 -64 75 -84 182 -91
74 -5 93 -10 102 -25 51 -87 107 -115 196 -96 36 8 74 9 97 5 l38 -8 -45 -14
c-25 -7 -78 -16 -117 -20 -64 -5 -73 -4 -73 11 0 9 -4 16 -9 16 -5 0 -12 -30
-16 -67 -8 -89 -10 -93 -40 -93 -24 0 -25 3 -25 53 0 67 -10 127 -21 127 -5 0
-9 -9 -9 -20 0 -18 -2 -18 -45 -5 -145 43 -279 202 -330 390 -20 76 -30 234
-20 311 l9 59 6 -51 c4 -28 16 -64 25 -80z m775 -692 c0 -73 -10 -92 -47 -92
-18 0 -23 6 -23 24 0 13 -3 44 -6 68 -6 43 -5 46 22 56 52 19 54 17 54 -56z
m-363 -168 c3 -63 19 -106 48 -134 14 -13 25 -31 25 -39 0 -11 -8 -8 -26 12
-14 15 -38 30 -54 34 -16 3 -31 11 -33 18 -8 19 16 155 28 155 5 0 11 -21 12
-46z m313 31 c-10 -12 -10 -19 -2 -27 7 -7 12 -25 12 -41 0 -34 14 -63 48 -99
31 -33 22 -50 -11 -20 -12 11 -34 24 -49 27 -36 9 -40 24 -26 106 8 47 17 69
26 69 12 0 12 -3 2 -15z m-339 -198 c-6 -8 -8 -17 -4 -20 3 -4 1 -7 -5 -7 -7
0 -12 9 -12 20 0 12 7 20 16 20 13 0 14 -3 5 -13z m184 -17 c18 -20 17 -20
-12 -20 -36 0 -47 9 -32 27 15 18 23 17 44 -7z m317 -12 c-6 -6 -23 -7 -39 -3
-27 6 -27 7 -9 20 22 17 66 1 48 -17z m-182 12 c0 -5 -7 -10 -16 -10 -8 0 -12
5 -9 10 3 6 10 10 16 10 5 0 9 -4 9 -10z"/>
<path d="M882 1668 c7 -20 48 -23 48 -4 0 11 -9 16 -26 16 -16 0 -24 -5 -22
-12z"/>
<path d="M737 1613 c-15 -14 -6 -24 20 -21 34 4 43 28 11 28 -14 0 -28 -3 -31
-7z"/>
<path d="M879 1562 c-29 -24 -20 -48 20 -57 17 -4 31 -13 31 -21 0 -9 11 -14
30 -14 34 0 38 7 13 26 -16 12 -16 13 8 14 15 0 33 7 40 16 35 43 -93 75 -142
36z m61 -17 c0 -10 -10 -15 -27 -15 -27 1 -27 1 -9 15 25 19 36 19 36 0z"/>
<path d="M702 1554 c-43 -30 -24 -63 36 -65 l27 0 -22 -16 c-28 -19 -30 -33
-5 -33 22 0 57 35 48 48 -3 5 8 12 24 16 35 7 41 39 11 56 -29 15 -93 12 -119
-6z m58 -19 c0 -10 -10 -15 -32 -15 l-33 1 25 14 c32 18 40 18 40 0z"/>
<path d="M864 1485 c-4 -9 -2 -21 4 -27 15 -15 44 -1 40 19 -4 23 -36 29 -44
8z"/>
<path d="M800 1469 c0 -15 5 -20 22 -17 34 5 37 38 4 38 -20 0 -26 -5 -26 -21z"/>
<path d="M880 1424 c0 -9 -8 -23 -17 -30 -29 -21 -5 -29 32 -11 46 22 55 21
55 -3 0 -28 18 -25 26 4 8 35 -4 49 -38 44 -16 -3 -31 -1 -34 4 -9 14 -24 9
-24 -8z"/>
<path d="M846 1282 c-70 -24 -91 -57 -90 -135 2 -76 23 -130 61 -153 15 -9 40
-25 55 -35 40 -28 77 -23 136 16 70 48 85 73 83 143 -2 92 -10 119 -47 152
-30 26 -42 30 -92 30 -31 -1 -79 -9 -106 -18z m165 -17 c36 -19 45 -42 54
-131 6 -59 4 -73 -11 -92 -19 -23 -19 -23 -16 38 2 34 1 72 -2 85 -13 53 -112
93 -187 76 -58 -13 -34 8 28 25 65 17 98 17 134 -1z m-34 -63 c32 -18 43 -44
43 -105 0 -63 -29 -116 -72 -131 -28 -10 -32 -9 -98 32 -50 31 -68 69 -69 138
-1 28 5 46 19 59 37 33 122 36 177 7z"/>
</g>
</svg>
